HIERARCHY
ROOT Hips
{
	OFFSET	0.00	0.00	0.00
	CHANNELS 6 Xposition Yposition Zposition Zrotation Xrotation Yrotation
	JOINT LeftUpLeg
	{
		OFFSET	 0.126116	-0.065224	 0.014019
		CHANNELS 3 Zrotation Xrotation Yrotation
		JOINT LeftLeg
		{
			OFFSET	 0.000000	 0.569914	 0.000000
			CHANNELS 3 Zrotation Xrotation Yrotation
			JOINT LeftFoot
			{
				OFFSET	 0.000000	 0.544423	 0.000000
				CHANNELS 3 Zrotation Xrotation Yrotation
				JOINT LeftToeBase
				{
					OFFSET	 0.000000	 0.207117	 0.000000
					CHANNELS 3 Zrotation Xrotation Yrotation
					End Site
					{
						OFFSET	 0.000000	 0.207117	 0.000000
					}
				}
			}
		}
	}
	JOINT RightUpLeg
	{
		OFFSET	-0.124023	-0.065224	 0.008373
		CHANNELS 3 Zrotation Xrotation Yrotation
		JOINT RightLeg
		{
			OFFSET	 0.000000	 0.570047	 0.000000
			CHANNELS 3 Zrotation Xrotation Yrotation
			JOINT RightFoot
			{
				OFFSET	 0.000000	 0.544354	 0.000000
				CHANNELS 3 Zrotation Xrotation Yrotation
				JOINT RightToeBase
				{
					OFFSET	 0.000000	 0.207540	 0.000000
					CHANNELS 3 Zrotation Xrotation Yrotation
					End Site
					{
						OFFSET	 0.000000	 0.207540	 0.000000
					}
				}
			}
		}
	}
	JOINT Spine
	{
		OFFSET	 0.000184	 0.117403	 0.007763
		CHANNELS 3 Zrotation Xrotation Yrotation
		JOINT Spine1
		{
			OFFSET	 0.000000	 0.137269	 0.000000
			CHANNELS 3 Zrotation Xrotation Yrotation
			JOINT Spine2
			{
				OFFSET	 0.000000	 0.156879	 0.000000
				CHANNELS 3 Zrotation Xrotation Yrotation
				JOINT LeftShoulder
				{
					OFFSET	 0.080501	 0.160143	 0.002496
					CHANNELS 3 Zrotation Xrotation Yrotation
					JOINT LeftArm
					{
						OFFSET	 0.000000	 0.164363	 0.000000
						CHANNELS 3 Zrotation Xrotation Yrotation
						JOINT LeftForeArm
						{
							OFFSET	 0.000000	 0.364576	 0.000000
							CHANNELS 3 Zrotation Xrotation Yrotation
							JOINT LeftHand
							{
								OFFSET	 0.000000	 0.360812	 0.000000
								CHANNELS 3 Zrotation Xrotation Yrotation
								JOINT LeftHandIndex1
								{
									OFFSET	 0.000000	 0.086006	 0.000000
									CHANNELS 3 Zrotation Xrotation Yrotation
									JOINT LeftHandIndex2
									{
										OFFSET	 0.000000	 0.047237	 0.000000
										CHANNELS 3 Zrotation Xrotation Yrotation
										JOINT LeftHandIndex3
										{
											OFFSET	-0.004284	 0.038165	 0.000551
											CHANNELS 3 Zrotation Xrotation Yrotation
											End Site
											{
												OFFSET	-0.004284	 0.038165	 0.000551
											}
										}
									}
								}
							}
						}
					}
				}
				JOINT Neck
				{
					OFFSET	 0.000000	 0.176489	 0.000000
					CHANNELS 3 Zrotation Xrotation Yrotation
					JOINT Head
					{
						OFFSET	 0.000000	 0.077941	 0.001747
						CHANNELS 3 Zrotation Xrotation Yrotation
						End Site
						{
							OFFSET	 0.000000	 0.077941	 0.001747
						}
					}
				}
				JOINT RightShoulder
				{
					OFFSET	-0.080363	 0.159706	-0.000306
					CHANNELS 3 Zrotation Xrotation Yrotation
					JOINT RightArm
					{
						OFFSET	 0.000000	 0.164196	 0.000000
						CHANNELS 3 Zrotation Xrotation Yrotation
						JOINT RightForeArm
						{
							OFFSET	 0.000000	 0.365611	 0.000000
							CHANNELS 3 Zrotation Xrotation Yrotation
							JOINT RightHand
							{
								OFFSET	 0.000000	 0.360648	 0.000000
								CHANNELS 3 Zrotation Xrotation Yrotation
								JOINT RightHandIndex1
								{
									OFFSET	 0.000000	 0.069977	 0.000000
									CHANNELS 3 Zrotation Xrotation Yrotation
									JOINT RightHandIndex2
									{
										OFFSET	 0.000000	 0.052305	 0.000000
										CHANNELS 3 Zrotation Xrotation Yrotation
										JOINT RightHandIndex3
										{
											OFFSET	 0.009002	 0.042196	 0.000782
											CHANNELS 3 Zrotation Xrotation Yrotation
											End Site
											{
												OFFSET	 0.009002	 0.042196	 0.000782
											}
										}
									}
								}
							}
						}
					}
				}
			}
		}
	}
}
MOTION
Frames:    10
Frame Time: 0.03333334
-0.024869	 1.174595	-2.961641	-2.570292	-0.065118	 176.786200	-176.353000	 37.772620	-42.070960	 3.137287	-22.435770	-5.259928	-17.012790	 72.635700	 34.825580	 1.301348	 28.545020	-2.717013	 171.155700	-14.169030	 19.312770	-3.040293	-35.197530	-4.283736	-2.907028	 66.497960	 17.702840	-6.511574	 61.234380	 9.232492	-4.395548	 5.044317	 17.547970	-0.385535	 3.666122	 2.155204	-0.348104	-4.073801	 0.539717	-120.019700	 3.263363	 91.915550	 5.037363	 48.583940	-2.987238	 22.985740	-0.257961	-39.834880	-22.261340	 10.616790	 33.415190	 4.457449	 24.510250	-1.624336	-5.940699	 31.304420	 3.507076	 5.865724	 17.149480	 0.005780	-0.013650	-5.167873	-0.758291	-2.175395	-2.335645	-4.547981	 119.486200	 1.618376	-91.637260	-25.554380	 23.644700	 7.804579	-23.174840	-0.201362	 39.828690	-30.141900	 9.118206	 6.757967	-2.866643	 23.675430	 1.535275	 15.583680	 43.913150	-11.422800	-8.535135	 21.327570	-1.051863
-0.044903	 1.198326	-3.310729	-3.795938	 1.281825	-179.438800	-179.945400	 24.714970	-36.992880	 5.352395	-35.136410	 0.525811	-1.887909	 74.123700	 17.354190	 1.364661	 29.368600	-2.744456	 163.116600	 2.612788	 23.863270	-9.307813	-65.065900	-0.983231	 15.632030	 55.905230	-7.031582	-2.248294	 39.986890	 4.727148	-7.086368	 4.642246	 34.183680	-0.243668	 2.975512	 1.113901	-0.526074	-3.749421	 0.358815	-121.804000	 5.283779	 93.000100	-4.698325	 51.368070	 8.534521	 27.409670	-0.739218	-27.273880	-9.742726	 4.113724	 24.687740	 4.448899	 20.546750	-1.670970	-5.861962	 23.528780	 2.602383	 5.442402	 6.955330	-0.124022	-0.154268	-5.099005	-0.487498	-2.558685	-1.589269	-3.893958	 119.119800	 0.705364	-91.188360	-12.626100	 44.513710	 0.731341	-17.346580	-0.195349	 27.462590	-17.980660	 2.086592	-6.019604	-2.755441	 26.894180	 1.493412	 16.263490	 46.476020	-12.460280	-8.526432	 24.578820	-1.267043
-0.046387	 1.228327	-3.512538	-3.057884	 0.718894	-175.073800	 178.855900	 13.824370	-32.250620	 4.896884	-32.782390	 3.762847	-1.016689	 80.510570	 11.268800	 1.467276	 30.676880	-2.790704	 160.307400	 21.752950	 33.452930	-9.129864	-64.644200	 1.090009	 1.668384	 72.469700	 1.253658	-1.731762	 33.606410	 3.938128	-6.092310	 4.805164	 37.093610	 0.001771	 2.744713	-0.152554	-0.262037	-3.388455	-0.378933	-121.687500	 6.837482	 93.768790	 28.146550	 38.488570	-12.016240	 11.676640	-0.253794	-15.156310	 3.783187	 1.231682	 9.828192	 4.675052	 19.478600	-1.709909	-5.862565	 22.013810	 2.433686	 5.346187	 4.683548	-0.162844	-0.175672	-4.853367	-0.129294	-2.358920	-1.830644	-3.290294	 118.639200	-0.010268	-90.835550	-5.846375	 45.911170	-1.460389	-11.754750	-0.195340	 15.140090	-6.046557	 8.979760	-11.294290	-2.441417	 25.958660	 1.331971	 15.933050	 45.276710	-11.963150	-8.529854	 23.772140	-1.213109
-0.037028	 1.206823	-3.869952	-2.831596	-1.803333	-171.504600	 179.804200	-4.561607	-26.523650	 3.814790	-26.654240	 6.984391	 16.770370	 87.557590	-15.872260	 2.061422	 37.606110	-3.097730	 168.937700	 30.471240	 36.696630	-0.559933	-7.404805	 11.303250	-6.015399	 62.859880	-5.719995	-1.718417	 33.730050	 2.911359	-3.985964	 4.678697	 28.431310	 0.479626	 4.140172	-1.763675	-0.339415	-4.577020	-1.258418	-121.256100	 9.338710	 94.980550	 37.190530	 13.846490	-13.261240	 6.315152	-0.221223	 4.502636	 21.496030	 2.657983	-5.628030	 4.811862	 19.942080	-1.785158	-5.861868	 22.475520	 2.484898	 5.374000	 5.337694	-0.151271	-0.164730	-4.936836	 0.225116	-1.541575	-2.799308	-3.024755	 118.158000	-1.249244	-90.250230	 11.391470	 40.285590	-10.356440	-6.861331	-0.189330	-4.526550	-2.929130	 17.983380	-18.799540	-1.631587	 18.226160	 0.942431	 14.246480	 37.462300	-9.158290	-8.523616	 16.371140	-0.732605
-0.002056	 1.204936	-4.422560	 0.540215	 1.852503	-172.210400	-164.096500	 2.206618	-30.458150	 15.118630	-63.060550	 15.015550	-28.382100	 66.086780	 24.445250	 2.985747	 46.074340	-3.198663	 173.868200	 25.599500	 32.182740	-3.158779	-36.234690	 4.084884	-31.100060	 71.909220	 21.842340	-1.574798	 32.002510	 2.840149	 2.676875	 7.056359	-8.034433	 0.633389	 2.316192	-1.657523	 0.069300	-3.009914	-1.167309	-120.439200	 7.958081	 94.222410	 33.244510	 25.142920	-13.290770	 19.999190	-0.251374	 33.592370	 6.808532	 6.632332	 3.375232	 5.004602	 23.157890	-2.051847	-5.874191	 26.367650	 2.924129	 5.587918	 10.435670	-0.071577	 0.018162	-5.011585	-0.029628	-1.811508	-1.217513	-2.688607	 119.676600	-1.227309	-90.297350	-0.796437	 43.661100	 0.435213	-20.181110	-0.196521	-33.601750	-2.348640	 7.624642	-14.304310	-2.155864	 14.743960	 1.200464	 13.750040	 34.333100	-8.195429	-8.491478	 12.120720	-0.463578
 0.001780	 1.234383	-4.738427	 0.245040	 1.706143	-176.747900	-159.453100	 26.621030	-48.621710	 17.194730	-65.850140	 13.179790	-9.090466	 72.786210	 16.331950	 1.442874	 30.368790	-2.779515	 177.354600	 7.457452	 29.252370	-2.614129	-31.239190	-1.239105	-56.223010	 77.640530	 52.403770	-1.703842	 33.557700	 2.903958	 3.769369	 6.408927	-22.941310	 0.280561	 2.921933	 0.181356	-0.032191	-3.267921	-0.476042	-120.138100	 6.122100	 93.308220	 2.973345	 45.627150	 4.953383	 48.526620	-1.256456	 43.567550	-13.445300	 3.039057	 16.694340	 5.039345	 26.605160	-2.166331	-5.908365	 29.436490	 3.282406	 5.735659	 14.002300	-0.026589	 0.110493	-4.830454	-0.431399	-2.349047	-1.728811	-3.453401	 119.732100	 0.453248	-91.096770	-20.670880	 48.837740	 8.707036	-24.284900	-0.192078	-42.830850	-14.631880	-5.217675	-4.425461	-2.720204	 19.037990	 1.476677	 14.451680	 38.613400	-9.532148	-8.521252	 15.935260	-0.704869
-0.014946	 1.181990	-5.171733	-1.641282	-0.114810	 177.328300	-176.802200	 37.692870	-41.142230	 2.023070	-14.913740	-10.446630	-42.616920	 72.616390	 58.550680	 1.233639	 27.650560	-2.688612	 173.648500	-10.951890	 21.762250	-2.771052	-32.739050	-9.731931	-60.373270	 75.555270	 71.538230	-4.107270	 54.095550	 4.408686	 1.403073	 5.861548	-31.283340	-0.101485	 4.007277	 1.969357	-0.246618	-3.992759	 0.440527	-119.503700	 2.907180	 91.724640	 5.026636	 48.177920	-3.674963	 25.987720	-0.266622	 45.998990	-21.628190	 9.685968	 32.544480	 4.785509	 27.686850	-1.825836	-6.010339	 34.223980	 3.870445	 5.999809	 20.380290	 0.031720	 0.032403	-5.025775	-0.826474	-2.351487	-2.624359	-4.483287	 119.570400	 1.921736	-91.786040	-27.412620	 24.093250	 8.048141	-25.967580	-0.200197	-45.997600	-34.416490	 6.158889	 8.082112	-2.898506	 22.220400	 1.544296	 15.266190	 42.576620	-10.916570	-8.535020	 20.145150	-0.974898
-0.045511	 1.200722	-5.680933	-3.871757	 1.768738	-178.887200	 179.699600	 23.504350	-36.328790	 5.391654	-35.333110	 0.512416	-3.137978	 74.729450	 18.122290	 1.357998	 29.282530	-2.741531	 162.825100	 3.872670	 24.241930	-9.972095	-66.528530	-1.422630	 14.884020	 57.340110	-6.802600	-1.871683	 36.114780	 3.781222	 0.171825	 8.882889	-22.693470	-0.158956	 3.012461	 0.874553	-0.492583	-3.748539	 0.213545	-121.915500	 5.440401	 93.085550	-16.177760	 49.775740	 17.656790	 46.704650	-1.360157	 35.896830	-16.113460	 3.903376	 23.865840	 4.462723	 20.606800	-1.692047	-5.861652	 23.139520	 2.558852	 5.415441	 6.316184	-0.134554	-0.160745	-5.076011	-0.462391	-2.633293	-1.552359	-3.804893	 119.101200	 0.674416	-91.173010	-12.011500	 45.338670	 0.529730	-20.896920	-0.196589	-35.165840	-16.994990	 2.112465	-6.551434	-2.688982	 26.621510	 1.456469	 16.289960	 46.568620	-12.499580	-8.526660	 24.528320	-1.263648
-0.046523	 1.232586	-5.898582	-3.181880	 1.261940	-175.186400	 178.792100	 10.922810	-31.811450	 4.601949	-31.424990	 4.203552	 0.304358	 81.226090	 8.918036	 1.472749	 30.745740	-2.793231	 161.377600	 22.192030	 33.253330	-7.756484	-60.430840	 2.915251	-0.744094	 68.097520	 1.623961	-1.709570	 33.456910	 3.561889	-0.113027	 8.326238	-12.974020	 0.368819	 3.201014	-0.484630	-0.308593	-3.666966	-0.549646	-121.574900	 6.809758	 93.746240	 32.902640	 34.335940	-14.877680	 16.520120	-0.256821	 25.680820	 0.071015	 4.265693	 7.291013	 4.641384	 19.129970	-1.677291	-5.863476	 21.632230	 2.391473	 5.336694	 4.461190	-0.166827	-0.163260	-4.967628	-0.200511	-2.303756	-1.806701	-3.198994	 118.626400	 0.189093	-90.927450	-5.721093	 45.883330	-1.662130	-16.599110	-0.197197	-25.691950	-6.679832	 9.314178	-10.932440	-2.519193	 26.431190	 1.373799	 16.073410	 45.796190	-12.175850	-8.527436	 24.359750	-1.252360
-0.044290	 1.276861	-5.860133	-1.706574	-9.540341	-176.566000	 175.522800	 14.625400	-32.595690	 1.298813	-9.704268	 1.700298	-2.876823	 67.650550	 14.381750	 1.444076	 30.383970	-2.780061	 172.508200	 36.716380	 28.384320	-0.357081	-4.737970	 6.306931	-19.359670	 15.840370	-0.865258	-1.742555	 33.690440	 4.057910	 1.438699	 11.403460	-8.302536	 1.881119	 27.186010	-2.160006	-0.631816	-14.423880	-0.243346	-121.734700	 6.361465	 93.533370	 61.381840	-7.632764	-25.414020	 14.478650	-0.230449	 22.322650	-22.773380	 24.552940	 4.149631	 4.654063	 19.329980	-1.693703	-5.863164	 21.750280	 2.404525	 5.340481	 4.549829	-0.165230	-0.159495	-4.936939	-0.241337	-2.446852	-1.640017	-3.241968	 118.774500	 0.336918	-91.001860	-33.288990	 35.983150	 15.688630	-15.023630	-0.195018	-22.341660	-15.193970	 7.110116	-4.849782	-2.578871	 26.752070	 1.401710	 16.239500	 46.391670	-12.424610	-8.526170	 24.629860	-1.270471
